<?xml version="1.0" encoding="UTF-8" standalone="no"?>
<svg
   xmlns:dc="http://purl.org/dc/elements/1.1/"
   xmlns:cc="http://creativecommons.org/ns#"
   xmlns:rdf="http://www.w3.org/1999/02/22-rdf-syntax-ns#"
   xmlns:svg="http://www.w3.org/2000/svg"
   xmlns="http://www.w3.org/2000/svg"
   viewBox="0 0 961.40668 105.5568"
   height="105.5568"
   width="961.40668"
   xml:space="preserve"
   id="svg2"
   version="1.1"><metadata
     id="metadata8"><rdf:RDF><cc:Work
         rdf:about=""><dc:format>image/svg+xml</dc:format><dc:type
           rdf:resource="http://purl.org/dc/dcmitype/StillImage" /></cc:Work></rdf:RDF></metadata><defs
     id="defs6"><clipPath
       id="clipPath18"
       clipPathUnits="userSpaceOnUse"><path
         id="path16"
         d="M 0,79.168 H 721.055 V 0 H 0 Z" /></clipPath></defs><g
     transform="matrix(1.3333333,0,0,-1.3333333,0,105.5568)"
     id="g10"><g
       id="g12"><g
         clip-path="url(#clipPath18)"
         id="g14"><g
           transform="translate(710.9297,39.2526)"
           id="g20"><path
             id="path22"
             style="fill:#9ca8b7;fill-opacity:1;fill-rule:nonzero;stroke:none"
             d="m 0,0 c -12.926,4.02 -25.825,8.129 -38.755,12.137 -4.641,1.44 -9.331,2.802 -14.199,3.208 -10.276,0.854 -19.251,-2.325 -27.032,-9.016 -2.317,-1.993 -4.577,-4.045 -6.728,-6.215 -0.909,-0.918 -1.893,-1.399 -3.241,-0.965 -3.938,1.268 -7.889,2.495 -11.845,3.704 -0.881,0.269 -1.036,0.525 -0.321,1.227 2.355,2.307 4.643,4.681 6.994,6.992 4.584,4.506 8.818,9.369 13.761,13.507 8.704,7.288 18.53,9.702 29.517,6.486 13.881,-4.063 27.664,-8.448 41.464,-12.774 2.606,-0.816 5.214,-1.632 7.823,-2.441 0.3,-0.095 0.659,-0.254 0.916,-0.015 0.289,0.267 0.025,0.617 -0.07,0.894 -0.483,1.406 -1.007,2.797 -1.502,4.199 -0.246,0.697 -0.686,1.064 -1.428,1.293 -14.847,4.592 -29.672,9.268 -44.534,13.821 -8.609,2.637 -17.193,2.626 -25.606,-0.911 -4.874,-2.051 -9.049,-5.122 -12.933,-8.702 -6.715,-6.191 -13.09,-12.71 -19.336,-19.359 -1.497,-1.591 -2.391,-1.916 -4.494,-1.212 -4.57,1.535 -9.186,2.922 -13.803,4.312 -0.665,0.201 -0.965,0.133 -1.078,-0.579 -0.156,-0.989 -0.329,-1.98 -0.552,-2.957 -0.247,-1.072 0.003,-1.673 1.181,-2.015 3.625,-1.051 7.216,-2.222 10.819,-3.354 1.292,-0.407 1.298,-0.44 0.347,-1.389 -3.844,-3.83 -7.684,-7.665 -11.549,-11.476 -0.627,-0.617 -0.941,-1.2 -0.706,-2.12 0.346,-1.359 0.539,-2.756 0.826,-4.132 0.078,-0.376 0.041,-0.912 0.455,-1.04 0.433,-0.133 0.664,0.371 0.935,0.641 5.268,5.251 10.549,10.488 15.769,15.785 1.054,1.07 2.085,1.279 3.46,0.821 3.355,-1.114 6.741,-2.14 10.11,-3.216 2.741,-0.872 2.733,-0.877 0.724,-2.916 -6.884,-6.985 -13.77,-13.969 -20.647,-20.962 -1.408,-1.433 -2.779,-2.905 -4.185,-4.338 -0.415,-0.422 -0.608,-0.814 -0.261,-1.373 0.698,-1.129 1.368,-2.271 2.046,-3.411 0.259,-0.432 0.491,-0.561 0.908,-0.107 3.34,3.647 6.972,7.006 10.479,10.489 5.844,5.808 11.675,11.631 17.4,17.557 1.689,1.75 3.32,2.089 5.59,1.375 15.939,-5.021 31.897,-9.983 47.87,-14.893 5.08,-1.562 10.308,-2.135 15.613,-1.509 7.312,0.863 13.727,3.824 19.396,8.471 0.395,0.325 0.642,0.698 0.74,1.197 0.757,5.016 -4.584,2.869 -4.584,2.869 l -0.005,-0.002 c -0.469,-0.374 -0.944,-0.742 -1.43,-1.103 -5.696,-4.208 -12.131,-6.209 -19.162,-6.209 -4.005,0 -7.867,1.015 -11.677,2.214 -7.164,2.254 -14.343,4.458 -21.512,6.696 -7.439,2.321 -14.873,4.651 -22.306,6.991 -1.413,0.446 -1.482,0.659 -0.492,1.725 1.534,1.65 3.15,3.218 4.916,4.621 7.784,6.183 16.546,8.741 26.409,6.911 4.035,-0.747 7.876,-2.241 11.79,-3.449 12.129,-3.737 24.239,-7.536 36.361,-11.298 2.813,-0.874 2.819,-0.85 2.815,2.055 0,0.403 -0.037,0.808 0.008,1.204 C 1.602,-0.912 1.141,-0.354 0,0" /></g><g
           transform="translate(710.9297,39.2526)"
           id="g24"><path
             id="path26"
             style="fill:#9ca8b7;fill-opacity:1;fill-rule:nonzero;stroke:none"
             d="m 0,0 c -12.926,4.02 -25.825,8.129 -38.755,12.137 -4.641,1.44 -9.331,2.802 -14.199,3.208 -10.276,0.854 -19.251,-2.325 -27.032,-9.016 -2.317,-1.993 -4.577,-4.045 -6.728,-6.215 -0.909,-0.918 -1.893,-1.399 -3.241,-0.965 -3.938,1.268 -7.889,2.495 -11.845,3.704 -0.881,0.269 -1.036,0.525 -0.321,1.227 2.355,2.307 4.643,4.681 6.994,6.992 4.584,4.506 8.818,9.369 13.761,13.507 8.704,7.288 18.53,9.702 29.517,6.486 13.881,-4.063 27.664,-8.448 41.464,-12.774 2.606,-0.816 5.214,-1.632 7.823,-2.441 0.3,-0.095 0.659,-0.254 0.916,-0.015 0.289,0.267 0.025,0.617 -0.07,0.894 -0.483,1.406 -1.007,2.797 -1.502,4.199 -0.246,0.697 -0.686,1.064 -1.428,1.293 -14.847,4.592 -29.672,9.268 -44.534,13.821 -8.609,2.637 -17.193,2.626 -25.606,-0.911 -4.874,-2.051 -9.049,-5.122 -12.933,-8.702 -6.715,-6.191 -13.09,-12.71 -19.336,-19.359 -1.497,-1.591 -2.391,-1.916 -4.494,-1.212 -4.57,1.535 -9.186,2.922 -13.803,4.312 -0.665,0.201 -0.965,0.133 -1.078,-0.579 -0.156,-0.989 -0.329,-1.98 -0.552,-2.957 -0.247,-1.072 0.003,-1.673 1.181,-2.015 3.625,-1.051 7.216,-2.222 10.819,-3.354 1.292,-0.407 1.298,-0.44 0.347,-1.389 -3.844,-3.83 -7.684,-7.665 -11.549,-11.476 -0.627,-0.617 -0.941,-1.2 -0.706,-2.12 0.346,-1.359 0.539,-2.756 0.826,-4.132 0.078,-0.376 0.041,-0.912 0.455,-1.04 0.433,-0.133 0.664,0.371 0.935,0.641 5.268,5.251 10.549,10.488 15.769,15.785 1.054,1.07 2.085,1.279 3.46,0.821 3.355,-1.114 6.741,-2.14 10.11,-3.216 2.741,-0.872 2.733,-0.877 0.724,-2.916 -6.884,-6.985 -13.77,-13.969 -20.647,-20.962 -1.408,-1.433 -2.779,-2.905 -4.185,-4.338 -0.415,-0.422 -0.608,-0.814 -0.261,-1.373 0.698,-1.129 1.368,-2.271 2.046,-3.411 0.259,-0.432 0.491,-0.561 0.908,-0.107 3.34,3.647 6.972,7.006 10.479,10.489 5.844,5.808 11.675,11.631 17.4,17.557 1.689,1.75 3.32,2.089 5.59,1.375 15.939,-5.021 31.897,-9.983 47.87,-14.893 5.08,-1.562 10.308,-2.135 15.613,-1.509 7.312,0.863 13.727,3.824 19.396,8.471 0.395,0.325 0.642,0.698 0.74,1.197 0.757,5.016 -4.584,2.869 -4.584,2.869 l -0.005,-0.002 c -0.469,-0.374 -0.944,-0.742 -1.43,-1.103 -5.696,-4.208 -12.131,-6.209 -19.162,-6.209 -4.005,0 -7.867,1.015 -11.677,2.214 -7.164,2.254 -14.343,4.458 -21.512,6.696 -7.439,2.321 -14.873,4.651 -22.306,6.991 -1.413,0.446 -1.482,0.659 -0.492,1.725 1.534,1.65 3.15,3.218 4.916,4.621 7.784,6.183 16.546,8.741 26.409,6.911 4.035,-0.747 7.876,-2.241 11.79,-3.449 12.129,-3.737 24.239,-7.536 36.361,-11.298 2.813,-0.874 2.819,-0.85 2.815,2.055 0,0.403 -0.037,0.808 0.008,1.204 C 1.602,-0.912 1.141,-0.354 0,0" /></g><g
           transform="translate(56.4141,51.547)"
           id="g28"><path
             id="path30"
             style="fill:#9ca8b7;fill-opacity:1;fill-rule:nonzero;stroke:none"
             d="m 0,0 h 15.52 c 0,0 -0.178,14.807 -17.126,17.84 -16.947,3.033 -40.317,1.784 -46.383,-11.775 -6.065,-13.558 10.347,-20.515 10.347,-20.515 0,0 5.887,-3.389 23.192,-4.995 17.304,-1.606 15.52,-6.423 15.52,-6.423 0,0 1.963,-7.314 -16.947,-6.957 -18.911,0.357 -18.732,6.422 -18.732,6.422 l -0.179,2.676 -15.52,0.536 c 0,0 -3.924,-22.122 34.609,-21.765 38.533,0.357 33.493,22.152 33.493,22.152 0,0 -0.399,16.678 -29.747,17.631 -25.16,0.817 -18.905,9.039 -18.905,9.039 0,0 2.331,4.522 15.873,3.448 C -0.35,6.154 -0.535,3.033 0,0" /></g><g
           transform="translate(121.3306,31.2174)"
           id="g32"><path
             id="path34"
             style="fill:#9ca8b7;fill-opacity:1;fill-rule:nonzero;stroke:none"
             d="M 0,0 11.65,26.065 23.301,0 Z M 21.326,38.407 H 3.555 l -30.904,-61.708 h 16.39 l 5.134,11.058 h 35.05 l 5.43,-11.058 h 17.279 z" /></g><g
           transform="translate(180.0469,69.6242)"
           id="g36"><path
             id="path38"
             style="fill:#9ca8b7;fill-opacity:1;fill-rule:nonzero;stroke:none"
             d="M 0,0 H 18.569 L 37.729,-25.374 58.361,0 H 76.047 L 45.687,-36.917 V -61.708 H 29.181 l 0.294,24.791 z" /></g><g
           transform="translate(279.3789,7.9162)"
           id="g40"><path
             id="path42"
             style="fill:#9ca8b7;fill-opacity:1;fill-rule:nonzero;stroke:none"
             d="M 0,0 H 15.033 V 46.308 L 35.371,0 H 50.403 L 69.857,46.308 V 0 H 86.026 V 61.708 H 61.309 L 43.013,18.307 24.76,61.708 H 0 Z" /></g><g
           transform="translate(416.3906,31.1613)"
           id="g44"><path
             id="path46"
             style="fill:#9ca8b7;fill-opacity:1;fill-rule:nonzero;stroke:none"
             d="M 0,0 11.65,26.065 23.301,0 Z M 21.326,38.407 H 3.555 l -30.904,-61.708 h 16.39 l 5.134,11.058 h 35.05 l 5.43,-11.058 h 17.279 z" /></g><g
           transform="translate(544.1045,45.3532)"
           id="g48"><path
             id="path50"
             style="fill:#9ca8b7;fill-opacity:1;fill-rule:nonzero;stroke:none"
             d="m 0,0 h 15.769 c 0,0 0.814,25.359 -36.603,25.649 -37.417,0.29 -37.997,-29.731 -37.997,-29.731 0,0 -4.438,-34.66 37.301,-34.66 41.738,0 37.301,25.379 37.301,25.379 L 0.34,-12.928 c 0,0 2.378,-13.342 -21.87,-13.342 -24.248,0 -20.622,22.624 -20.622,22.624 0,0 -0.146,16.968 22.044,16.823 C 2.08,13.032 0,0 0,0" /></g></g></g></g></svg>