<?xml version="1.0" encoding="utf-8"?>
<!-- Generator: Adobe Illustrator 24.2.0, SVG Export Plug-In . SVG Version: 6.00 Build 0)  -->
<svg version="1.0"
	 id="svg2" xmlns:cc="http://creativecommons.org/ns#" xmlns:dc="http://purl.org/dc/elements/1.1/" xmlns:rdf="http://www.w3.org/1999/02/22-rdf-syntax-ns#" xmlns:svg="http://www.w3.org/2000/svg"
	 xmlns="http://www.w3.org/2000/svg" xmlns:xlink="http://www.w3.org/1999/xlink" x="0px" y="0px" width="923.33px"
	 height="105.557px" viewBox="0 0 923.33 105.557" style="enable-background:new 0 0 923.33 105.557;" xml:space="preserve">
<style type="text/css">
	.st0{fill:#FFFFFF;}
</style>
<path class="st0" d="M917.063,53.38c-16.723-5.201-33.411-10.517-50.139-15.702c-6.005-1.864-12.072-3.626-18.37-4.15
	c-13.295-1.105-24.906,3.008-34.973,11.664c-2.997,2.578-5.92,5.233-8.704,8.04c-1.176,1.187-2.45,1.809-4.193,1.248
	c-5.094-1.64-10.206-3.227-15.324-4.792c-1.14-0.347-1.34-0.679-0.416-1.587c3.047-2.985,6.008-6.057,9.049-9.046
	c5.93-5.83,11.409-12.122,17.803-17.474c11.261-9.429,23.973-12.553,38.188-8.392c17.958,5.256,35.79,10.93,53.643,16.527
	c3.371,1.056,6.745,2.111,10.121,3.159c0.388,0.121,0.852,0.328,1.185,0.018c0.373-0.345,0.032-0.797-0.091-1.156
	c-0.625-1.819-1.303-3.618-1.943-5.432c-0.318-0.901-0.888-1.376-1.848-1.673c-19.208-5.942-38.388-11.99-57.614-17.881
	c-11.138-3.412-22.244-3.398-33.128,1.177c-6.306,2.654-11.707,6.627-16.731,11.259c-8.687,8.009-16.935,16.443-25.016,25.045
	c-1.937,2.058-3.094,2.479-5.814,1.569c-5.913-1.986-11.885-3.781-17.857-5.579c-0.86-0.26-1.25-0.172-1.395,0.749
	c-0.202,1.28-0.426,2.562-0.715,3.826c-0.318,1.387,0.004,2.164,1.529,2.607c4.69,1.359,9.335,2.874,13.996,4.339
	c1.672,0.526,1.68,0.569,0.45,1.797c-4.974,4.955-9.942,9.917-14.941,14.846c-0.811,0.798-1.218,1.553-0.913,2.743
	c0.447,1.759,0.697,3.566,1.068,5.346c0.101,0.486,0.053,1.18,0.589,1.345c0.561,0.173,0.859-0.481,1.21-0.829
	c6.815-6.795,13.647-13.569,20.4-20.422c1.365-1.385,2.697-1.655,4.476-1.062c4.341,1.441,8.721,2.769,13.08,4.16
	c3.547,1.129,3.536,1.135,0.936,3.773c-8.906,9.037-17.814,18.073-26.711,27.12c-1.822,1.853-3.596,3.757-5.415,5.612
	c-0.537,0.546-0.786,1.053-0.337,1.777c0.903,1.459,1.77,2.938,2.647,4.412c0.335,0.559,0.635,0.726,1.175,0.139
	c4.321-4.719,9.02-9.063,13.556-13.57c7.561-7.514,15.105-15.047,22.512-22.714c2.186-2.263,4.296-2.703,7.232-1.779
	c20.621,6.497,41.267,12.916,61.931,19.268c6.572,2.021,13.337,2.762,20.2,1.952c9.459-1.116,17.758-4.947,25.093-10.959
	c0.512-0.42,0.831-0.903,0.958-1.548c0.979-6.49-5.931-3.712-5.931-3.712l-0.006,0.002c-0.606,0.485-1.222,0.961-1.85,1.427
	c-7.369,5.444-15.695,8.033-24.791,8.033c-5.181,0-10.178-1.313-15.107-2.864c-9.268-2.915-18.557-5.767-27.832-8.663
	c-9.623-3.004-19.242-6.018-28.858-9.045c-1.828-0.576-1.918-0.852-0.637-2.232c1.985-2.133,4.076-4.163,6.36-5.978
	c10.071-7.999,21.406-11.308,34.167-8.941c5.221,0.967,10.19,2.9,15.253,4.462c15.692,4.836,31.359,9.749,47.041,14.617
	c3.64,1.13,3.648,1.099,3.642-2.66c0-0.52-0.048-1.045,0.01-1.558C919.136,54.559,918.539,53.838,917.063,53.38"/>
<path class="st0" d="M917.063,53.38c-16.723-5.201-33.411-10.517-50.139-15.702c-6.005-1.864-12.072-3.626-18.37-4.15
	c-13.295-1.105-24.906,3.008-34.973,11.664c-2.997,2.578-5.92,5.233-8.704,8.04c-1.176,1.187-2.45,1.809-4.193,1.248
	c-5.094-1.64-10.206-3.227-15.324-4.792c-1.14-0.347-1.34-0.679-0.416-1.587c3.047-2.985,6.008-6.057,9.049-9.046
	c5.93-5.83,11.409-12.122,17.803-17.474c11.261-9.429,23.973-12.553,38.188-8.392c17.958,5.256,35.79,10.93,53.643,16.527
	c3.371,1.056,6.745,2.111,10.121,3.159c0.388,0.121,0.852,0.328,1.185,0.018c0.373-0.345,0.032-0.797-0.091-1.156
	c-0.625-1.819-1.303-3.618-1.943-5.432c-0.318-0.901-0.888-1.376-1.848-1.673c-19.208-5.942-38.388-11.99-57.614-17.881
	c-11.138-3.412-22.244-3.398-33.128,1.177c-6.306,2.654-11.707,6.627-16.731,11.259c-8.687,8.009-16.935,16.443-25.016,25.045
	c-1.937,2.058-3.094,2.479-5.814,1.569c-5.913-1.986-11.885-3.781-17.857-5.579c-0.86-0.26-1.25-0.172-1.395,0.749
	c-0.202,1.28-0.426,2.562-0.715,3.826c-0.318,1.387,0.004,2.164,1.529,2.607c4.69,1.359,9.335,2.874,13.996,4.339
	c1.672,0.526,1.68,0.569,0.45,1.797c-4.974,4.955-9.942,9.917-14.941,14.846c-0.811,0.798-1.218,1.553-0.913,2.743
	c0.447,1.759,0.697,3.566,1.068,5.346c0.101,0.486,0.053,1.18,0.589,1.345c0.561,0.173,0.859-0.481,1.21-0.829
	c6.815-6.795,13.647-13.569,20.4-20.422c1.365-1.385,2.697-1.655,4.476-1.062c4.341,1.441,8.721,2.769,13.08,4.16
	c3.547,1.129,3.536,1.135,0.936,3.773c-8.906,9.037-17.814,18.073-26.711,27.12c-1.822,1.853-3.596,3.757-5.415,5.612
	c-0.537,0.546-0.786,1.053-0.337,1.777c0.903,1.459,1.77,2.938,2.647,4.412c0.335,0.559,0.635,0.726,1.175,0.139
	c4.321-4.719,9.02-9.063,13.556-13.57c7.561-7.514,15.105-15.047,22.512-22.714c2.186-2.263,4.296-2.703,7.232-1.779
	c20.621,6.497,41.267,12.916,61.931,19.268c6.572,2.021,13.337,2.762,20.2,1.952c9.459-1.116,17.758-4.947,25.093-10.959
	c0.512-0.42,0.831-0.903,0.958-1.548c0.979-6.49-5.931-3.712-5.931-3.712l-0.006,0.002c-0.606,0.485-1.222,0.961-1.85,1.427
	c-7.369,5.444-15.695,8.033-24.791,8.033c-5.181,0-10.178-1.313-15.107-2.864c-9.268-2.915-18.557-5.767-27.832-8.663
	c-9.623-3.004-19.242-6.018-28.858-9.045c-1.828-0.576-1.918-0.852-0.637-2.232c1.985-2.133,4.076-4.163,6.36-5.978
	c10.071-7.999,21.406-11.308,34.167-8.941c5.221,0.967,10.19,2.9,15.253,4.462c15.692,4.836,31.359,9.749,47.041,14.617
	c3.64,1.13,3.648,1.099,3.642-2.66c0-0.52-0.048-1.045,0.01-1.558C919.136,54.559,918.539,53.838,917.063,53.38"/>
<path class="st0" d="M70.292,37.474h20.079c0,0-0.231-19.156-22.157-23.08s-52.16-2.308-60.007,15.233
	C0.36,47.167,21.593,56.169,21.593,56.169s7.616,4.385,30.004,6.462c22.387,2.077,20.079,8.309,20.079,8.309
	s2.539,9.463-21.926,9.001c-24.465-0.462-24.234-8.309-24.234-8.309l-0.231-3.462L5.207,67.478c0,0-5.078,28.619,44.775,28.157
	c49.852-0.462,43.332-28.659,43.332-28.659S92.797,45.4,54.828,44.167C22.278,43.11,30.37,32.472,30.37,32.472
	s3.016-5.85,20.535-4.461C69.839,29.513,69.599,33.55,70.292,37.474z"/>
<path class="st0" d="M181.868,14.087h-22.992L118.895,93.92h21.204l6.642-14.306h45.346l7.025,14.306h22.353L181.868,14.087z
	 M154.277,63.775l15.073-33.722l15.073,33.722H154.277z"/>
<polygon class="st0" points="230.24,14.087 254.264,14.087 279.051,46.914 305.745,14.087 328.625,14.087 289.347,61.848 
	289.347,93.921 267.993,93.921 268.374,61.848 "/>
<polygon class="st0" points="358.75,93.921 378.198,93.921 378.198,34.01 404.511,93.921 423.959,93.921 449.127,34.01 
	449.127,93.921 470.045,93.921 470.045,14.087 438.068,14.087 414.398,70.237 390.783,14.087 358.75,14.087 "/>
<path class="st0" d="M563.598,14.159h-22.992l-39.981,79.834h21.204l6.642-14.306h45.346l7.025,14.306h22.354L563.598,14.159z
	 M536.008,63.848l15.073-33.722l15.073,33.722H536.008z"/>
<path class="st0" d="M701.236,45.487h20.401c0,0,1.053-32.808-47.355-33.183c-48.407-0.375-49.158,38.463-49.158,38.463
	s-5.741,44.842,48.257,44.842c53.999,0,48.257-32.834,48.257-32.834l-19.963-0.563c0,0,3.077,17.261-28.294,17.261
	c-31.371,0-26.68-29.269-26.68-29.269s-0.188-21.952,28.519-21.765C703.927,28.628,701.236,45.487,701.236,45.487z"/>
</svg>
